<mxfile host="app.diagrams.net" agent="Mozilla/5.0 (Windows NT 10.0; Win64; x64) AppleWebKit/537.36 (KHTML, like Gecko) Chrome/127.0.0.0 Safari/537.36" version="24.7.7">
  <diagram id="C5RBs43oDa-KdzZeNtuy" name="Page-1">
    <mxGraphModel dx="1434" dy="728" grid="1" gridSize="10" guides="1" tooltips="1" connect="1" arrows="1" fold="1" page="1" pageScale="1" pageWidth="827" pageHeight="1169" math="0" shadow="0">
      <root>
        <mxCell id="WIyWlLk6GJQsqaUBKTNV-0" />
        <mxCell id="WIyWlLk6GJQsqaUBKTNV-1" parent="WIyWlLk6GJQsqaUBKTNV-0" />
        <mxCell id="e8zVixRo0vkdpL-Mrhjq-0" value="Book" style="swimlane;fontStyle=1;align=center;verticalAlign=top;childLayout=stackLayout;horizontal=1;startSize=26;horizontalStack=0;resizeParent=1;resizeParentMax=0;resizeLast=0;collapsible=1;marginBottom=0;whiteSpace=wrap;html=1;" vertex="1" parent="WIyWlLk6GJQsqaUBKTNV-1">
          <mxGeometry x="240" y="30" width="150" height="190" as="geometry" />
        </mxCell>
        <mxCell id="e8zVixRo0vkdpL-Mrhjq-1" value="-Title&lt;div&gt;-Author&lt;/div&gt;&lt;div&gt;-Publication&lt;/div&gt;&lt;div&gt;-Id&lt;/div&gt;&lt;div&gt;-Rupees&lt;/div&gt;" style="text;strokeColor=none;fillColor=none;align=left;verticalAlign=top;spacingLeft=4;spacingRight=4;overflow=hidden;rotatable=0;points=[[0,0.5],[1,0.5]];portConstraint=eastwest;whiteSpace=wrap;html=1;" vertex="1" parent="e8zVixRo0vkdpL-Mrhjq-0">
          <mxGeometry y="26" width="150" height="84" as="geometry" />
        </mxCell>
        <mxCell id="e8zVixRo0vkdpL-Mrhjq-2" value="" style="line;strokeWidth=1;fillColor=none;align=left;verticalAlign=middle;spacingTop=-1;spacingLeft=3;spacingRight=3;rotatable=0;labelPosition=right;points=[];portConstraint=eastwest;strokeColor=inherit;" vertex="1" parent="e8zVixRo0vkdpL-Mrhjq-0">
          <mxGeometry y="110" width="150" height="8" as="geometry" />
        </mxCell>
        <mxCell id="e8zVixRo0vkdpL-Mrhjq-3" value="&lt;div&gt;+Book_request()&lt;/div&gt;&lt;div&gt;+Renewal_info()&lt;/div&gt;&lt;div&gt;+Reservation_status()&lt;/div&gt;&lt;div&gt;+Read_book()&lt;/div&gt;" style="text;strokeColor=none;fillColor=none;align=left;verticalAlign=top;spacingLeft=4;spacingRight=4;overflow=hidden;rotatable=0;points=[[0,0.5],[1,0.5]];portConstraint=eastwest;whiteSpace=wrap;html=1;" vertex="1" parent="e8zVixRo0vkdpL-Mrhjq-0">
          <mxGeometry y="118" width="150" height="72" as="geometry" />
        </mxCell>
        <mxCell id="e8zVixRo0vkdpL-Mrhjq-6" value="" style="endArrow=classic;html=1;rounded=0;" edge="1" parent="WIyWlLk6GJQsqaUBKTNV-1">
          <mxGeometry width="50" height="50" relative="1" as="geometry">
            <mxPoint x="200" y="300" as="sourcePoint" />
            <mxPoint x="250" y="240" as="targetPoint" />
            <Array as="points">
              <mxPoint x="240" y="260" />
            </Array>
          </mxGeometry>
        </mxCell>
        <mxCell id="e8zVixRo0vkdpL-Mrhjq-9" value="" style="endArrow=classic;html=1;rounded=0;" edge="1" parent="WIyWlLk6GJQsqaUBKTNV-1">
          <mxGeometry width="50" height="50" relative="1" as="geometry">
            <mxPoint x="350" y="310" as="sourcePoint" />
            <mxPoint x="280" y="240" as="targetPoint" />
          </mxGeometry>
        </mxCell>
        <mxCell id="e8zVixRo0vkdpL-Mrhjq-10" value="Journals" style="swimlane;fontStyle=1;align=center;verticalAlign=top;childLayout=stackLayout;horizontal=1;startSize=40;horizontalStack=0;resizeParent=1;resizeParentMax=0;resizeLast=0;collapsible=1;marginBottom=0;whiteSpace=wrap;html=1;" vertex="1" parent="WIyWlLk6GJQsqaUBKTNV-1">
          <mxGeometry x="70" y="310" width="130" height="180" as="geometry" />
        </mxCell>
        <mxCell id="e8zVixRo0vkdpL-Mrhjq-11" value="&lt;div&gt;-Title&lt;/div&gt;&lt;div&gt;-Author&lt;/div&gt;&lt;div&gt;-Publication&lt;/div&gt;&lt;div&gt;-Id&lt;/div&gt;" style="text;strokeColor=none;fillColor=none;align=left;verticalAlign=top;spacingLeft=4;spacingRight=4;overflow=hidden;rotatable=0;points=[[0,0.5],[1,0.5]];portConstraint=eastwest;whiteSpace=wrap;html=1;" vertex="1" parent="e8zVixRo0vkdpL-Mrhjq-10">
          <mxGeometry y="40" width="130" height="70" as="geometry" />
        </mxCell>
        <mxCell id="e8zVixRo0vkdpL-Mrhjq-12" value="" style="line;strokeWidth=1;fillColor=none;align=left;verticalAlign=middle;spacingTop=-1;spacingLeft=3;spacingRight=3;rotatable=0;labelPosition=right;points=[];portConstraint=eastwest;strokeColor=inherit;" vertex="1" parent="e8zVixRo0vkdpL-Mrhjq-10">
          <mxGeometry y="110" width="130" height="8" as="geometry" />
        </mxCell>
        <mxCell id="e8zVixRo0vkdpL-Mrhjq-13" value="+Book_request()&lt;div&gt;+Renewal_info()&lt;/div&gt;&lt;div&gt;+Reservation_status()&lt;/div&gt;" style="text;strokeColor=none;fillColor=none;align=left;verticalAlign=top;spacingLeft=4;spacingRight=4;overflow=hidden;rotatable=0;points=[[0,0.5],[1,0.5]];portConstraint=eastwest;whiteSpace=wrap;html=1;" vertex="1" parent="e8zVixRo0vkdpL-Mrhjq-10">
          <mxGeometry y="118" width="130" height="62" as="geometry" />
        </mxCell>
        <mxCell id="e8zVixRo0vkdpL-Mrhjq-14" value="Study Books" style="swimlane;fontStyle=1;align=center;verticalAlign=top;childLayout=stackLayout;horizontal=1;startSize=26;horizontalStack=0;resizeParent=1;resizeParentMax=0;resizeLast=0;collapsible=1;marginBottom=0;whiteSpace=wrap;html=1;" vertex="1" parent="WIyWlLk6GJQsqaUBKTNV-1">
          <mxGeometry x="250" y="310" width="150" height="180" as="geometry" />
        </mxCell>
        <mxCell id="e8zVixRo0vkdpL-Mrhjq-15" value="-Title&lt;div&gt;-Author&lt;/div&gt;&lt;div&gt;-Publication&lt;/div&gt;&lt;div&gt;-Id&lt;/div&gt;" style="text;strokeColor=none;fillColor=none;align=left;verticalAlign=top;spacingLeft=4;spacingRight=4;overflow=hidden;rotatable=0;points=[[0,0.5],[1,0.5]];portConstraint=eastwest;whiteSpace=wrap;html=1;" vertex="1" parent="e8zVixRo0vkdpL-Mrhjq-14">
          <mxGeometry y="26" width="150" height="84" as="geometry" />
        </mxCell>
        <mxCell id="e8zVixRo0vkdpL-Mrhjq-16" value="" style="line;strokeWidth=1;fillColor=none;align=left;verticalAlign=middle;spacingTop=-1;spacingLeft=3;spacingRight=3;rotatable=0;labelPosition=right;points=[];portConstraint=eastwest;strokeColor=inherit;" vertex="1" parent="e8zVixRo0vkdpL-Mrhjq-14">
          <mxGeometry y="110" width="150" height="8" as="geometry" />
        </mxCell>
        <mxCell id="e8zVixRo0vkdpL-Mrhjq-17" value="+Book_request()&lt;div&gt;+Renewal_info()&lt;/div&gt;&lt;div&gt;+Reservation_status()&lt;/div&gt;" style="text;strokeColor=none;fillColor=none;align=left;verticalAlign=top;spacingLeft=4;spacingRight=4;overflow=hidden;rotatable=0;points=[[0,0.5],[1,0.5]];portConstraint=eastwest;whiteSpace=wrap;html=1;" vertex="1" parent="e8zVixRo0vkdpL-Mrhjq-14">
          <mxGeometry y="118" width="150" height="62" as="geometry" />
        </mxCell>
        <mxCell id="e8zVixRo0vkdpL-Mrhjq-18" value="" style="endArrow=diamondThin;endFill=1;endSize=24;html=1;rounded=0;" edge="1" parent="WIyWlLk6GJQsqaUBKTNV-1">
          <mxGeometry width="160" relative="1" as="geometry">
            <mxPoint x="400" y="150" as="sourcePoint" />
            <mxPoint x="520" y="150" as="targetPoint" />
          </mxGeometry>
        </mxCell>
        <mxCell id="e8zVixRo0vkdpL-Mrhjq-27" value="User_Record" style="swimlane;fontStyle=1;align=center;verticalAlign=top;childLayout=stackLayout;horizontal=1;startSize=26;horizontalStack=0;resizeParent=1;resizeParentMax=0;resizeLast=0;collapsible=1;marginBottom=0;whiteSpace=wrap;html=1;" vertex="1" parent="WIyWlLk6GJQsqaUBKTNV-1">
          <mxGeometry x="540" y="40" width="160" height="200" as="geometry" />
        </mxCell>
        <mxCell id="e8zVixRo0vkdpL-Mrhjq-28" value="-Name&lt;div&gt;-Address&lt;/div&gt;&lt;div&gt;-Roll_no&lt;/div&gt;&lt;div&gt;-Department&lt;/div&gt;&lt;div&gt;-No.of.books borrowed&lt;/div&gt;" style="text;strokeColor=none;fillColor=none;align=left;verticalAlign=top;spacingLeft=4;spacingRight=4;overflow=hidden;rotatable=0;points=[[0,0.5],[1,0.5]];portConstraint=eastwest;whiteSpace=wrap;html=1;" vertex="1" parent="e8zVixRo0vkdpL-Mrhjq-27">
          <mxGeometry y="26" width="160" height="94" as="geometry" />
        </mxCell>
        <mxCell id="e8zVixRo0vkdpL-Mrhjq-29" value="" style="line;strokeWidth=1;fillColor=none;align=left;verticalAlign=middle;spacingTop=-1;spacingLeft=3;spacingRight=3;rotatable=0;labelPosition=right;points=[];portConstraint=eastwest;strokeColor=inherit;" vertex="1" parent="e8zVixRo0vkdpL-Mrhjq-27">
          <mxGeometry y="120" width="160" height="8" as="geometry" />
        </mxCell>
        <mxCell id="e8zVixRo0vkdpL-Mrhjq-30" value="+register()&lt;div&gt;+Borrow book()&lt;/div&gt;&lt;div&gt;+Renew Book()&lt;/div&gt;&lt;div&gt;+Return book()&lt;/div&gt;" style="text;strokeColor=none;fillColor=none;align=left;verticalAlign=top;spacingLeft=4;spacingRight=4;overflow=hidden;rotatable=0;points=[[0,0.5],[1,0.5]];portConstraint=eastwest;whiteSpace=wrap;html=1;" vertex="1" parent="e8zVixRo0vkdpL-Mrhjq-27">
          <mxGeometry y="128" width="160" height="72" as="geometry" />
        </mxCell>
        <mxCell id="e8zVixRo0vkdpL-Mrhjq-31" value="" style="endArrow=classic;html=1;rounded=0;" edge="1" parent="WIyWlLk6GJQsqaUBKTNV-1">
          <mxGeometry width="50" height="50" relative="1" as="geometry">
            <mxPoint x="550" y="300" as="sourcePoint" />
            <mxPoint x="570" y="250" as="targetPoint" />
          </mxGeometry>
        </mxCell>
        <mxCell id="e8zVixRo0vkdpL-Mrhjq-37" value="" style="endArrow=classic;html=1;rounded=0;" edge="1" parent="WIyWlLk6GJQsqaUBKTNV-1">
          <mxGeometry width="50" height="50" relative="1" as="geometry">
            <mxPoint x="690" y="300" as="sourcePoint" />
            <mxPoint x="640" y="250" as="targetPoint" />
          </mxGeometry>
        </mxCell>
        <mxCell id="e8zVixRo0vkdpL-Mrhjq-38" value="Staff" style="swimlane;fontStyle=1;align=center;verticalAlign=top;childLayout=stackLayout;horizontal=1;startSize=26;horizontalStack=0;resizeParent=1;resizeParentMax=0;resizeLast=0;collapsible=1;marginBottom=0;whiteSpace=wrap;html=1;" vertex="1" parent="WIyWlLk6GJQsqaUBKTNV-1">
          <mxGeometry x="620" y="320" width="120" height="200" as="geometry" />
        </mxCell>
        <mxCell id="e8zVixRo0vkdpL-Mrhjq-39" value="-Name&lt;div&gt;-Id&lt;/div&gt;&lt;div&gt;-Department&lt;/div&gt;&lt;div&gt;-Years of Experience&lt;/div&gt;" style="text;strokeColor=none;fillColor=none;align=left;verticalAlign=top;spacingLeft=4;spacingRight=4;overflow=hidden;rotatable=0;points=[[0,0.5],[1,0.5]];portConstraint=eastwest;whiteSpace=wrap;html=1;" vertex="1" parent="e8zVixRo0vkdpL-Mrhjq-38">
          <mxGeometry y="26" width="120" height="74" as="geometry" />
        </mxCell>
        <mxCell id="e8zVixRo0vkdpL-Mrhjq-40" value="" style="line;strokeWidth=1;fillColor=none;align=left;verticalAlign=middle;spacingTop=-1;spacingLeft=3;spacingRight=3;rotatable=0;labelPosition=right;points=[];portConstraint=eastwest;strokeColor=inherit;" vertex="1" parent="e8zVixRo0vkdpL-Mrhjq-38">
          <mxGeometry y="100" width="120" height="8" as="geometry" />
        </mxCell>
        <mxCell id="e8zVixRo0vkdpL-Mrhjq-41" value="+Register()&lt;div&gt;+Get_book()&lt;/div&gt;&lt;div&gt;+Renew,return book()&lt;/div&gt;&lt;div&gt;+Get_membership()&lt;/div&gt;" style="text;strokeColor=none;fillColor=none;align=left;verticalAlign=top;spacingLeft=4;spacingRight=4;overflow=hidden;rotatable=0;points=[[0,0.5],[1,0.5]];portConstraint=eastwest;whiteSpace=wrap;html=1;" vertex="1" parent="e8zVixRo0vkdpL-Mrhjq-38">
          <mxGeometry y="108" width="120" height="92" as="geometry" />
        </mxCell>
        <mxCell id="e8zVixRo0vkdpL-Mrhjq-43" value="Student" style="swimlane;fontStyle=1;align=center;verticalAlign=top;childLayout=stackLayout;horizontal=1;startSize=26;horizontalStack=0;resizeParent=1;resizeParentMax=0;resizeLast=0;collapsible=1;marginBottom=0;whiteSpace=wrap;html=1;" vertex="1" parent="WIyWlLk6GJQsqaUBKTNV-1">
          <mxGeometry x="490" y="310" width="90" height="200" as="geometry" />
        </mxCell>
        <mxCell id="e8zVixRo0vkdpL-Mrhjq-44" value="-Name&lt;div&gt;-Reg_no&lt;/div&gt;&lt;div&gt;-Id&lt;/div&gt;&lt;div&gt;-Department&lt;/div&gt;" style="text;strokeColor=none;fillColor=none;align=left;verticalAlign=top;spacingLeft=4;spacingRight=4;overflow=hidden;rotatable=0;points=[[0,0.5],[1,0.5]];portConstraint=eastwest;whiteSpace=wrap;html=1;" vertex="1" parent="e8zVixRo0vkdpL-Mrhjq-43">
          <mxGeometry y="26" width="90" height="74" as="geometry" />
        </mxCell>
        <mxCell id="e8zVixRo0vkdpL-Mrhjq-45" value="" style="line;strokeWidth=1;fillColor=none;align=left;verticalAlign=middle;spacingTop=-1;spacingLeft=3;spacingRight=3;rotatable=0;labelPosition=right;points=[];portConstraint=eastwest;strokeColor=inherit;" vertex="1" parent="e8zVixRo0vkdpL-Mrhjq-43">
          <mxGeometry y="100" width="90" height="8" as="geometry" />
        </mxCell>
        <mxCell id="e8zVixRo0vkdpL-Mrhjq-46" value="+Register()&lt;div&gt;+Login()&lt;/div&gt;&lt;div&gt;+Borrow,renew&lt;/div&gt;&lt;div&gt;,return book&lt;/div&gt;&lt;div&gt;+pay_fine()&lt;/div&gt;" style="text;strokeColor=none;fillColor=none;align=left;verticalAlign=top;spacingLeft=4;spacingRight=4;overflow=hidden;rotatable=0;points=[[0,0.5],[1,0.5]];portConstraint=eastwest;whiteSpace=wrap;html=1;" vertex="1" parent="e8zVixRo0vkdpL-Mrhjq-43">
          <mxGeometry y="108" width="90" height="92" as="geometry" />
        </mxCell>
        <mxCell id="e8zVixRo0vkdpL-Mrhjq-47" value="Librarian" style="swimlane;fontStyle=1;align=center;verticalAlign=top;childLayout=stackLayout;horizontal=1;startSize=26;horizontalStack=0;resizeParent=1;resizeParentMax=0;resizeLast=0;collapsible=1;marginBottom=0;whiteSpace=wrap;html=1;" vertex="1" parent="WIyWlLk6GJQsqaUBKTNV-1">
          <mxGeometry x="20" y="30" width="160" height="190" as="geometry" />
        </mxCell>
        <mxCell id="e8zVixRo0vkdpL-Mrhjq-48" value="-Name&lt;div&gt;-Id&lt;/div&gt;&lt;div&gt;-Password&lt;/div&gt;&lt;div&gt;-Search_string&lt;/div&gt;" style="text;strokeColor=none;fillColor=none;align=left;verticalAlign=top;spacingLeft=4;spacingRight=4;overflow=hidden;rotatable=0;points=[[0,0.5],[1,0.5]];portConstraint=eastwest;whiteSpace=wrap;html=1;" vertex="1" parent="e8zVixRo0vkdpL-Mrhjq-47">
          <mxGeometry y="26" width="160" height="74" as="geometry" />
        </mxCell>
        <mxCell id="e8zVixRo0vkdpL-Mrhjq-49" value="" style="line;strokeWidth=1;fillColor=none;align=left;verticalAlign=middle;spacingTop=-1;spacingLeft=3;spacingRight=3;rotatable=0;labelPosition=right;points=[];portConstraint=eastwest;strokeColor=inherit;" vertex="1" parent="e8zVixRo0vkdpL-Mrhjq-47">
          <mxGeometry y="100" width="160" height="8" as="geometry" />
        </mxCell>
        <mxCell id="e8zVixRo0vkdpL-Mrhjq-50" value="+Verify_librarian()&lt;div&gt;+search()&lt;/div&gt;&lt;div&gt;+Maintenance of records()&lt;/div&gt;&lt;div&gt;+Issue Membership()&lt;/div&gt;&lt;div&gt;+Update membership()&lt;/div&gt;" style="text;strokeColor=none;fillColor=none;align=left;verticalAlign=top;spacingLeft=4;spacingRight=4;overflow=hidden;rotatable=0;points=[[0,0.5],[1,0.5]];portConstraint=eastwest;whiteSpace=wrap;html=1;" vertex="1" parent="e8zVixRo0vkdpL-Mrhjq-47">
          <mxGeometry y="108" width="160" height="82" as="geometry" />
        </mxCell>
        <mxCell id="e8zVixRo0vkdpL-Mrhjq-51" value="" style="line;strokeWidth=1;fillColor=none;align=left;verticalAlign=middle;spacingTop=-1;spacingLeft=3;spacingRight=3;rotatable=0;labelPosition=right;points=[];portConstraint=eastwest;strokeColor=inherit;" vertex="1" parent="WIyWlLk6GJQsqaUBKTNV-1">
          <mxGeometry x="180" y="46" width="60" height="188" as="geometry" />
        </mxCell>
        <mxCell id="e8zVixRo0vkdpL-Mrhjq-54" value="" style="line;strokeWidth=1;fillColor=none;align=left;verticalAlign=middle;spacingTop=-1;spacingLeft=3;spacingRight=3;rotatable=0;labelPosition=right;points=[];portConstraint=eastwest;strokeColor=inherit;" vertex="1" parent="WIyWlLk6GJQsqaUBKTNV-1">
          <mxGeometry x="45" y="585" width="180" height="8" as="geometry" />
        </mxCell>
        <mxCell id="e8zVixRo0vkdpL-Mrhjq-63" value="Library_Database" style="swimlane;fontStyle=1;align=center;verticalAlign=top;childLayout=stackLayout;horizontal=1;startSize=26;horizontalStack=0;resizeParent=1;resizeParentMax=0;resizeLast=0;collapsible=1;marginBottom=0;whiteSpace=wrap;html=1;" vertex="1" parent="WIyWlLk6GJQsqaUBKTNV-1">
          <mxGeometry x="220" y="550" width="160" height="140" as="geometry" />
        </mxCell>
        <mxCell id="e8zVixRo0vkdpL-Mrhjq-64" value="-List of all books" style="text;strokeColor=none;fillColor=none;align=left;verticalAlign=top;spacingLeft=4;spacingRight=4;overflow=hidden;rotatable=0;points=[[0,0.5],[1,0.5]];portConstraint=eastwest;whiteSpace=wrap;html=1;" vertex="1" parent="e8zVixRo0vkdpL-Mrhjq-63">
          <mxGeometry y="26" width="160" height="26" as="geometry" />
        </mxCell>
        <mxCell id="e8zVixRo0vkdpL-Mrhjq-65" value="" style="line;strokeWidth=1;fillColor=none;align=left;verticalAlign=middle;spacingTop=-1;spacingLeft=3;spacingRight=3;rotatable=0;labelPosition=right;points=[];portConstraint=eastwest;strokeColor=inherit;" vertex="1" parent="e8zVixRo0vkdpL-Mrhjq-63">
          <mxGeometry y="52" width="160" height="8" as="geometry" />
        </mxCell>
        <mxCell id="e8zVixRo0vkdpL-Mrhjq-66" value="+add()&lt;div&gt;+delete()&lt;/div&gt;&lt;div&gt;+update()&lt;/div&gt;&lt;div&gt;+display()&lt;/div&gt;&lt;div&gt;+search()&lt;/div&gt;" style="text;strokeColor=none;fillColor=none;align=left;verticalAlign=top;spacingLeft=4;spacingRight=4;overflow=hidden;rotatable=0;points=[[0,0.5],[1,0.5]];portConstraint=eastwest;whiteSpace=wrap;html=1;" vertex="1" parent="e8zVixRo0vkdpL-Mrhjq-63">
          <mxGeometry y="60" width="160" height="80" as="geometry" />
        </mxCell>
        <mxCell id="e8zVixRo0vkdpL-Mrhjq-67" value="" style="endArrow=none;html=1;rounded=0;" edge="1" parent="WIyWlLk6GJQsqaUBKTNV-1">
          <mxGeometry width="50" height="50" relative="1" as="geometry">
            <mxPoint x="610" y="600" as="sourcePoint" />
            <mxPoint x="550" y="530" as="targetPoint" />
          </mxGeometry>
        </mxCell>
        <mxCell id="e8zVixRo0vkdpL-Mrhjq-68" value="" style="endArrow=none;html=1;rounded=0;entryX=0.333;entryY=1.109;entryDx=0;entryDy=0;entryPerimeter=0;" edge="1" parent="WIyWlLk6GJQsqaUBKTNV-1" target="e8zVixRo0vkdpL-Mrhjq-41">
          <mxGeometry width="50" height="50" relative="1" as="geometry">
            <mxPoint x="610" y="600" as="sourcePoint" />
            <mxPoint x="680" y="535" as="targetPoint" />
          </mxGeometry>
        </mxCell>
        <mxCell id="e8zVixRo0vkdpL-Mrhjq-69" value="Account" style="swimlane;fontStyle=1;align=center;verticalAlign=top;childLayout=stackLayout;horizontal=1;startSize=26;horizontalStack=0;resizeParent=1;resizeParentMax=0;resizeLast=0;collapsible=1;marginBottom=0;whiteSpace=wrap;html=1;" vertex="1" parent="WIyWlLk6GJQsqaUBKTNV-1">
          <mxGeometry x="510" y="604" width="160" height="130" as="geometry" />
        </mxCell>
        <mxCell id="e8zVixRo0vkdpL-Mrhjq-70" value="+No.of.Borrowed books&lt;div&gt;+No.of.Reserved books&lt;/div&gt;&lt;div&gt;+No.of.Returned books&lt;/div&gt;&lt;div&gt;+Pay_fine&lt;/div&gt;" style="text;strokeColor=none;fillColor=none;align=left;verticalAlign=top;spacingLeft=4;spacingRight=4;overflow=hidden;rotatable=0;points=[[0,0.5],[1,0.5]];portConstraint=eastwest;whiteSpace=wrap;html=1;" vertex="1" parent="e8zVixRo0vkdpL-Mrhjq-69">
          <mxGeometry y="26" width="160" height="64" as="geometry" />
        </mxCell>
        <mxCell id="e8zVixRo0vkdpL-Mrhjq-71" value="" style="line;strokeWidth=1;fillColor=none;align=left;verticalAlign=middle;spacingTop=-1;spacingLeft=3;spacingRight=3;rotatable=0;labelPosition=right;points=[];portConstraint=eastwest;strokeColor=inherit;" vertex="1" parent="e8zVixRo0vkdpL-Mrhjq-69">
          <mxGeometry y="90" width="160" height="8" as="geometry" />
        </mxCell>
        <mxCell id="e8zVixRo0vkdpL-Mrhjq-72" value="+Calculate_fine()" style="text;strokeColor=none;fillColor=none;align=left;verticalAlign=top;spacingLeft=4;spacingRight=4;overflow=hidden;rotatable=0;points=[[0,0.5],[1,0.5]];portConstraint=eastwest;whiteSpace=wrap;html=1;" vertex="1" parent="e8zVixRo0vkdpL-Mrhjq-69">
          <mxGeometry y="98" width="160" height="32" as="geometry" />
        </mxCell>
        <mxCell id="e8zVixRo0vkdpL-Mrhjq-74" value="1" style="text;html=1;align=center;verticalAlign=middle;resizable=0;points=[];autosize=1;strokeColor=none;fillColor=none;" vertex="1" parent="WIyWlLk6GJQsqaUBKTNV-1">
          <mxGeometry x="495" y="108" width="30" height="30" as="geometry" />
        </mxCell>
        <mxCell id="e8zVixRo0vkdpL-Mrhjq-75" value="*" style="text;html=1;align=center;verticalAlign=middle;resizable=0;points=[];autosize=1;strokeColor=none;fillColor=none;" vertex="1" parent="WIyWlLk6GJQsqaUBKTNV-1">
          <mxGeometry x="395" y="118" width="30" height="30" as="geometry" />
        </mxCell>
        <mxCell id="e8zVixRo0vkdpL-Mrhjq-76" value="*" style="text;html=1;align=center;verticalAlign=middle;resizable=0;points=[];autosize=1;strokeColor=none;fillColor=none;" vertex="1" parent="WIyWlLk6GJQsqaUBKTNV-1">
          <mxGeometry x="215" y="118" width="30" height="30" as="geometry" />
        </mxCell>
        <mxCell id="e8zVixRo0vkdpL-Mrhjq-79" value="" style="endArrow=none;html=1;rounded=0;exitX=0.033;exitY=0.125;exitDx=0;exitDy=0;exitPerimeter=0;entryX=0.15;entryY=1.061;entryDx=0;entryDy=0;entryPerimeter=0;" edge="1" parent="WIyWlLk6GJQsqaUBKTNV-1" target="e8zVixRo0vkdpL-Mrhjq-50">
          <mxGeometry width="50" height="50" relative="1" as="geometry">
            <mxPoint x="45.00000000000006" y="592.02" as="sourcePoint" />
            <mxPoint x="27.020000000000035" y="227.98799999999997" as="targetPoint" />
          </mxGeometry>
        </mxCell>
        <mxCell id="e8zVixRo0vkdpL-Mrhjq-80" value="1" style="text;html=1;align=center;verticalAlign=middle;resizable=0;points=[];autosize=1;strokeColor=none;fillColor=none;" vertex="1" parent="WIyWlLk6GJQsqaUBKTNV-1">
          <mxGeometry x="175" y="118" width="30" height="30" as="geometry" />
        </mxCell>
        <mxCell id="e8zVixRo0vkdpL-Mrhjq-81" value="1" style="text;html=1;align=center;verticalAlign=middle;resizable=0;points=[];autosize=1;strokeColor=none;fillColor=none;" vertex="1" parent="WIyWlLk6GJQsqaUBKTNV-1">
          <mxGeometry x="45" y="218" width="30" height="30" as="geometry" />
        </mxCell>
        <mxCell id="e8zVixRo0vkdpL-Mrhjq-82" value="1" style="text;html=1;align=center;verticalAlign=middle;resizable=0;points=[];autosize=1;strokeColor=none;fillColor=none;" vertex="1" parent="WIyWlLk6GJQsqaUBKTNV-1">
          <mxGeometry x="175" y="558" width="30" height="30" as="geometry" />
        </mxCell>
        <mxCell id="e8zVixRo0vkdpL-Mrhjq-83" value="1" style="text;html=1;align=center;verticalAlign=middle;resizable=0;points=[];autosize=1;strokeColor=none;fillColor=none;" vertex="1" parent="WIyWlLk6GJQsqaUBKTNV-1">
          <mxGeometry x="525" y="518" width="30" height="30" as="geometry" />
        </mxCell>
        <mxCell id="e8zVixRo0vkdpL-Mrhjq-84" value="1" style="text;html=1;align=center;verticalAlign=middle;resizable=0;points=[];autosize=1;strokeColor=none;fillColor=none;" vertex="1" parent="WIyWlLk6GJQsqaUBKTNV-1">
          <mxGeometry x="545" y="578" width="30" height="30" as="geometry" />
        </mxCell>
        <mxCell id="e8zVixRo0vkdpL-Mrhjq-85" value="1" style="text;html=1;align=center;verticalAlign=middle;resizable=0;points=[];autosize=1;strokeColor=none;fillColor=none;" vertex="1" parent="WIyWlLk6GJQsqaUBKTNV-1">
          <mxGeometry x="665" y="528" width="30" height="30" as="geometry" />
        </mxCell>
        <mxCell id="e8zVixRo0vkdpL-Mrhjq-86" value="1" style="text;html=1;align=center;verticalAlign=middle;resizable=0;points=[];autosize=1;strokeColor=none;fillColor=none;" vertex="1" parent="WIyWlLk6GJQsqaUBKTNV-1">
          <mxGeometry x="615" y="568" width="30" height="30" as="geometry" />
        </mxCell>
      </root>
    </mxGraphModel>
  </diagram>
</mxfile>
